# xmcd
#
# Track frame offsets:
#	150
#	21193
#	36670
#	50890
#	65118
#	81890
#	95883
#	113363
#	134058
#	163280
#
# Disc length: 2368 seconds
#
# Revision: 10
# Processed by: cddbd v1.5.1PL2 Copyright (c) Steve Scherf et al.
# Submitted via: dBpowerAMP V4.0
#
DISCID=9a093e0a
DTITLE=Various Artist - Windy City Blues
DYEAR=1992
DGENRE=Blues
TTITLE0=Otis Rush - Every Day I Have the Blues
TTITLE1=Robert Jr. Lockwood - Blues and Trouble
TTITLE2=Mighty Joe Young - I Walked All Night
TTITLE3=Roosevelt Sykes - Rock-A-Bye Birdie
TTITLE4=Otis Rush - Cut You A-Loose
TTITLE5=Robert Jr. Lockwood - Lockwood's Boogie
TTITLE6=Mighty Joe Young - Things I Used To Do
TTITLE7=Roosevelt Sykes - Sykes Gumboogie
TTITLE8=Otis Rush - Mean Old World
TTITLE9=Roosevelt Sykes - Eagle Rock Me Baby
EXTD=LABEL =Delta Music Inc.\nID =17002\nUPC =018111-700221\nCOPYRI
EXTT0=
EXTT1=
EXTT2=
EXTT3=
EXTT4=
EXTT5=
EXTT6=
EXTT7=
EXTT8=
EXTT9=
PLAYORDER=
